HIERARCHY
ROOT Hips
{
	OFFSET 53.041100 -10.204616 96.173103
	CHANNELS 6 Xposition Yposition Zposition Xrotation Yrotation Zrotation
	JOINT spine
	{
		OFFSET 0.000000 -0.467661 8.132492
		CHANNELS 3 Xrotation Yrotation Zrotation
		JOINT spine1
		{
			OFFSET 0.000000 -0.000002 10.349800
			CHANNELS 3 Xrotation Yrotation Zrotation
			JOINT spine2
			{
				OFFSET 0.000000 -0.000001 9.916992
				CHANNELS 3 Xrotation Yrotation Zrotation
				JOINT Neck
				{
					OFFSET 0.000000 -1.213904 25.460999
					CHANNELS 3 Xrotation Yrotation Zrotation
					JOINT Head
					{
						OFFSET 0.000000 -0.000001 7.692444
						CHANNELS 3 Xrotation Yrotation Zrotation
						End Site
						{
							OFFSET 0.000000 6.140627 18.619995
						}
					}
				}
				JOINT RightShoulder
				{
					OFFSET -4.175751 0.581443 10.709595
					CHANNELS 3 Xrotation Yrotation Zrotation
					JOINT RightArm
					{
						OFFSET 0.000000 -0.000003 14.046600
						CHANNELS 3 Xrotation Yrotation Zrotation
						JOINT RightArmRoll
						{
							OFFSET 0.000000 -0.000001 7.090973
							CHANNELS 3 Xrotation Yrotation Zrotation
							JOINT RightForeArm
							{
								OFFSET 0.000000 -0.000003 20.653503
								CHANNELS 3 Xrotation Yrotation Zrotation
								JOINT RightForeArmRoll
								{
									OFFSET 0.000000 -0.000002 7.957184
									CHANNELS 3 Xrotation Yrotation Zrotation
									JOINT RightHand
									{
										OFFSET 0.000000 -0.000002 15.968292
										CHANNELS 3 Xrotation Yrotation Zrotation
										End Site
										{
											OFFSET 0.000000 0.000000 0.100006
										}
									}
								}
							}
						}
					}
				}
				JOINT LeftShoulder
				{
					OFFSET 4.175751 0.581443 10.709595
					CHANNELS 3 Xrotation Yrotation Zrotation
					JOINT LeftArm
					{
						OFFSET 0.000000 -0.000003 14.046600
						CHANNELS 3 Xrotation Yrotation Zrotation
						JOINT LeftArmRoll
						{
							OFFSET 0.000000 -0.000001 7.090973
							CHANNELS 3 Xrotation Yrotation Zrotation
							JOINT LeftForeArm
							{
								OFFSET 0.000000 -0.000003 20.653503
								CHANNELS 3 Xrotation Yrotation Zrotation
								JOINT LeftForeArmRoll
								{
									OFFSET 0.000000 -0.000002 7.957184
									CHANNELS 3 Xrotation Yrotation Zrotation
									JOINT LeftHand
									{
										OFFSET 0.000000 -0.000002 15.968292
										CHANNELS 3 Xrotation Yrotation Zrotation
										End Site
										{
											OFFSET 0.000000 0.000000 0.100006
										}
									}
								}
							}
						}
					}
				}
			}
		}
	}
	JOINT RightUpLeg
	{
		OFFSET -7.208340 1.108840 -1.321823
		CHANNELS 3 Xrotation Yrotation Zrotation
		JOINT RightUpLegRoll
		{
			OFFSET 0.000000 -0.000003 18.723801
			CHANNELS 3 Xrotation Yrotation Zrotation
			JOINT RightLeg
			{
				OFFSET 0.000000 0.000004 -23.186600
				CHANNELS 3 Xrotation Yrotation Zrotation
				JOINT RightLegRoll
				{
					OFFSET 0.000000 -0.000004 23.262398
					CHANNELS 3 Xrotation Yrotation Zrotation
					JOINT RightFoot
					{
						OFFSET 0.000000 -0.000004 19.362106
						CHANNELS 3 Xrotation Yrotation Zrotation
						JOINT RightToeBase
						{
							OFFSET 0.000000 -0.000002 16.185699
							CHANNELS 3 Xrotation Yrotation Zrotation
							End Site
							{
								OFFSET 0.006859 0.903521 7.838623
							}
						}
					}
				}
			}
		}
	}
	JOINT LeftUpLeg
	{
		OFFSET 7.208340 1.108840 -1.321823
		CHANNELS 3 Xrotation Yrotation Zrotation
		JOINT LeftUpLegRoll
		{
			OFFSET 0.000000 -0.000003 18.723900
			CHANNELS 3 Xrotation Yrotation Zrotation
			JOINT LeftLeg
			{
				OFFSET 0.000000 -0.000004 23.186508
				CHANNELS 3 Xrotation Yrotation Zrotation
				JOINT LeftLegRoll
				{
					OFFSET 0.000000 -0.000004 23.477509
					CHANNELS 3 Xrotation Yrotation Zrotation
					JOINT LeftFoot
					{
						OFFSET 0.000000 -0.000004 19.147003
						CHANNELS 3 Xrotation Yrotation Zrotation
						JOINT LeftToeBase
						{
							OFFSET 0.000000 -0.000002 16.185699
							CHANNELS 3 Xrotation Yrotation Zrotation
							End Site
							{
								OFFSET -0.030746 0.903521 7.838623
							}
						}
					}
				}
			}
		}
	}
}
MOTION
Frames: 7
Frame Time: 0.041667
53.040596 -9.060184 96.141495 -4.895538 0.103981 1.434566 -1.543877 -0.279176 0.112643 0.931426 -0.555096 0.221172 2.576530 -0.552359 0.227884 13.862441 7.434570 -1.024094 -3.822094 2.935967 -1.489923 -18.138015 -57.494668 -21.431245 -45.012897 -132.186058 -71.645399 -0.000010 0.000002 -0.000002 115.083374 2.902071 -16.656721 0.000004 0.000008 -2.999999 -5.000216 -7.999033 0.000111 -10.426333 63.345435 12.552486 -57.366650 142.744998 67.083379 0.000008 0.000010 0.000003 96.199506 -1.081640 5.622572 -0.000002 -0.000006 3.001959 -5.000231 7.998825 -0.000137 -0.021192 -172.600998 4.059149 -179.999991 0.000006 -0.987995 169.493248 -1.501415 -0.643421 0.000006 -0.000004 -0.011370 69.182979 6.049963 4.303003 25.456948 -7.355615 0.000009 0.534960 173.566267 -1.744006 -0.000005 -0.000004 -0.972560 -11.773111 1.307425 0.710450 -0.000000 -0.000005 -0.106328 71.370443 -6.048975 -4.275856 25.458477 7.355625 -0.002292 
53.038395 -9.063296 96.143311 -4.900338 0.104668 1.433244 -1.544488 -0.279312 0.112189 0.931963 -0.554611 0.220372 2.577069 -0.551884 0.227055 13.860143 7.429114 -1.028633 -3.789254 2.915994 -1.493933 -18.138652 -57.499790 -21.432039 -44.898682 -132.286885 -71.784250 -0.000010 0.000001 -0.000003 115.040248 2.923541 -16.698334 0.000000 0.000005 -3.000000 -5.000213 -7.999031 0.000112 -10.435995 63.333708 12.563000 -57.271440 142.790828 67.277807 0.000008 0.000010 0.000003 96.156660 -1.134402 5.665002 0.000001 -0.000007 3.001949 -5.000232 7.998823 -0.000137 -0.011153 -172.603006 4.059833 -179.999991 0.000006 -0.987996 169.498958 -1.501444 -0.643271 0.000007 -0.000004 -0.011124 69.182890 6.051169 4.300231 25.456943 -7.355613 0.000009 0.544767 173.565297 -1.746094 -0.000005 -0.000005 -0.972691 -11.768810 1.306907 0.710290 0.000001 -0.000005 -0.106311 71.371850 -6.049762 -4.272312 25.458478 7.355623 -0.002291 
53.037796 -9.065990 96.145485 -4.905019 0.105473 1.431661 -1.545017 -0.279439 0.111735 0.932440 -0.554203 0.219554 2.577549 -0.551487 0.226211 13.858555 7.423614 -1.033354 -3.757851 2.897029 -1.498092 -18.137583 -57.504449 -21.430777 -44.784468 -132.385459 -71.931680 -0.000009 0.000001 -0.000005 114.994130 2.946306 -16.740150 0.000005 0.000006 -2.999999 -5.000214 -7.999032 0.000114 -10.446588 63.321407 12.574550 -57.177853 142.837970 67.473007 0.000004 0.000010 0.000003 96.117168 -1.185189 5.706337 -0.000003 -0.000006 3.001949 -5.000232 7.998825 -0.000135 -0.001630 -172.605000 4.060259 -179.999991 0.000006 -0.987995 169.504067 -1.501467 -0.643137 0.000007 -0.000005 -0.010880 69.183095 6.052298 4.297627 25.456948 -7.355614 0.000010 0.554116 173.564300 -1.748261 -0.000005 -0.000004 -0.972819 -11.765305 1.306415 0.710132 -0.000000 -0.000005 -0.106295 71.373667 -6.050530 -4.268839 25.458482 7.355625 -0.002292 
53.037598 -9.071487 96.146294 -4.909516 0.106381 1.429778 -1.545450 -0.279548 0.111280 0.932836 -0.553872 0.218717 2.577940 -0.551165 0.225353 13.857769 7.418011 -1.038268 -3.728072 2.879306 -1.502416 -18.134482 -57.508608 -21.427085 -44.671114 -132.481068 -72.088617 -0.000012 0.000001 -0.000005 114.945008 2.970349 -16.783163 0.000003 0.000005 -3.000001 -5.000216 -7.999029 0.000115 -10.458177 63.308839 12.587254 -57.085738 142.887257 67.667422 0.000009 0.000010 0.000003 96.081849 -1.233425 5.746537 -0.000005 -0.000006 3.001940 -5.000232 7.998824 -0.000136 0.007208 -172.607008 4.060386 -179.999991 0.000006 -0.987995 169.508370 -1.500495 -0.642840 0.000006 -0.000004 -0.010637 69.183594 6.053275 4.295480 25.456943 -7.355613 0.000010 0.562899 173.562319 -1.750495 -0.000005 -0.000004 -0.972947 -11.762701 1.305966 0.709978 -0.000000 -0.000005 -0.106278 71.375887 -6.051207 -4.265831 25.458480 7.355624 -0.002292 
53.035995 -9.079105 96.146393 -4.913818 0.107377 1.427552 -1.545758 -0.279627 0.110827 0.933140 -0.553615 0.217863 2.578238 -0.550919 0.224484 13.857884 7.412225 -1.043388 -3.700103 2.863020 -1.506919 -18.129031 -57.512167 -21.420590 -44.559126 -132.572947 -72.255799 -0.000011 0.000001 -0.000001 114.892811 2.995659 -16.828328 0.000002 0.000008 -3.000000 -5.000217 -7.999032 0.000114 -10.470664 63.295787 12.600961 -56.995651 142.939139 67.860580 0.000007 0.000009 0.000003 96.051700 -1.278547 5.786584 0.000000 -0.000006 3.001940 -5.000230 7.998826 -0.000135 0.015197 -172.610000 4.060214 -179.999991 0.000005 -0.987995 169.511758 -1.500511 -0.642751 0.000007 -0.000004 -0.010397 69.184338 6.054102 4.293692 25.456945 -7.355615 0.000011 0.571013 173.561309 -1.752755 -0.000006 -0.000004 -0.973075 -11.761199 1.305553 0.709828 -0.000000 -0.000005 -0.106262 71.378503 -6.051865 -4.263195 25.458480 7.355625 -0.002292 
53.034798 -9.083252 96.147697 -4.917860 0.108449 1.424961 -1.545931 -0.279666 0.110375 0.933333 -0.553431 0.216992 2.578439 -0.550746 0.223605 13.859003 7.406202 -1.048728 -3.674138 2.848393 -1.511619 -18.120912 -57.515111 -21.410896 -44.446797 -132.662409 -72.430816 -0.000012 0.000001 -0.000003 114.837487 3.022201 -16.873648 0.000002 0.000007 -3.000001 -5.000217 -7.999028 0.000115 -10.484062 63.282365 12.615705 -56.907528 142.994518 68.050985 0.000005 0.000010 0.000003 96.027392 -1.319888 5.826495 -0.000003 -0.000007 3.001938 -5.000232 7.998825 -0.000136 0.022172 -172.611994 4.059689 -179.999991 0.000005 -0.987996 169.513861 -1.499542 -0.643512 0.000006 -0.000004 -0.010162 69.185554 6.054724 4.292440 25.456945 -7.355613 0.000010 0.578346 173.559328 -1.755037 -0.000005 -0.000004 -0.973202 -11.760799 1.305183 0.709678 -0.000000 -0.000005 -0.106246 71.381822 -6.052342 -4.260993 25.458480 7.355625 -0.002292 
53.033596 -9.079233 96.147202 -4.921579 0.109657 1.422023 -1.545978 -0.279671 0.109917 0.933386 -0.553356 0.216063 2.578489 -0.550683 0.222673 13.861130 7.400101 -1.054463 -3.650405 2.835208 -1.516695 -18.110130 -57.517515 -21.398030 -44.332579 -132.747650 -72.614111 -0.000011 0.000002 -0.000002 114.779116 3.050364 -16.921218 0.000005 0.000008 -2.999999 -5.000214 -7.999033 0.000113 -10.499052 63.268322 12.632254 -56.820760 143.053955 68.235782 0.000005 0.000011 0.000004 96.009278 -1.356809 5.864216 -0.000004 -0.000006 3.001929 -5.000233 7.998824 -0.000136 0.028113 -172.615013 4.058712 -179.999991 0.000005 -0.987995 169.514886 -1.497584 -0.643123 0.000007 -0.000004 -0.009925 69.187139 6.055165 4.291636 25.456948 -7.355613 0.000009 0.584783 173.557333 -1.757409 -0.000005 -0.000004 -0.973330 -11.761798 1.304894 0.709535 0.000000 -0.000005 -0.106221 71.385654 -6.052795 -4.259259 25.458480 7.355624 -0.002292 
